<svg xmlns="http://www.w3.org/2000/svg" xmlns:xlink="http://www.w3.org/1999/xlink" xmlns:v="http://vecta.io" width="16" height="16" viewBox="0 0 1016 1016" >
    <style>
        <![CDATA[svg{stroke:#000;stroke-linecap:round;stroke-linejoin:round;fill:#fff;fill-rule:evenodd;font-family:Roboto;font-size:14px;text-anchor:middle}svg text{stroke:none}]]>
    </style>
    <g transform="translate(0.5 0.5)">
        <g >
            <g id="jvhcqitpgm" transform="translate(131.7581 227.7539)">
                <path d="M 454.4606 257.4609 L 537.6403 257.4609 L 537.6403 182.2031 L 454.4606 182.2031 Z M 355.4372 257.4609 L 438.6169 257.4609 L 438.6169 182.2031 L 355.4372 182.2031 Z M 258.3942 257.4609 L 341.5739 257.4609 L 341.5739 182.2031 L 258.3942 182.2031 Z M 161.3512 257.4609 L 242.5504 257.4609 L 242.5504 182.2031 L 161.3512 182.2031 Z M 62.3278 257.4609 L 145.5075 257.4609 L 145.5075 182.2031 L 62.3278 182.2031 Z M 161.3512 166.3594 L 242.5504 166.3594 L 242.5504 91.1016 L 161.3512 91.1016 Z M 258.3942 166.3594 L 341.5739 166.3594 L 341.5739 91.1016 L 258.3942 91.1016 Z M 355.4372 166.3594 L 438.6169 166.3594 L 438.6169 91.1016 L 355.4372 91.1016 Z M 355.4372 75.2578 L 438.6169 75.2578 L 438.6169 0 L 355.4372 0 Z M 803.0231 223.793 C 803.0231 223.793 767.3747 190.125 694.0973 202.0078 C 686.1754 144.5742 624.7809 110.9063 624.7809 110.9063 C 624.7809 110.9063 567.3473 180.2227 608.9372 257.4609 C 597.0544 263.4023 577.2497 271.3242 547.5426 271.3242 L 2.9137 271.3242 C -6.9886 308.9531 -6.9886 558.4922 266.3161 558.4922 C 462.3825 558.4922 608.9372 467.3906 678.2536 301.0313 C 781.2379 308.9531 803.0231 223.793 803.0231 223.793 Z" stroke="#000000" fill-rule="nonzero" stroke-width="0.9999999999999982" fill="#ffffff" fill-opacity="1" stroke-opacity="1"/>
            </g>
        </g>
    </g>
</svg>
